<svg width="200" height="223" viewBox="0 0 200 223" fill="none" xmlns="http://www.w3.org/2000/svg">
<path d="M200 156.109V66.8908C199.996 62.9795 198.967 59.1379 197.017 55.7515C195.067 52.3652 192.264 49.5531 188.889 47.5974L111.111 2.98825C107.733 1.03061 103.901 0 100 0C96.0992 0 92.2671 1.03061 88.8889 2.98825L11.1111 47.5974C7.73625 49.5531 4.93311 52.3652 2.98291 55.7515C1.0327 59.1379 0.00399713 62.9795 0 66.8908V156.109C0.00399713 160.021 1.0327 163.862 2.98291 167.248C4.93311 170.635 7.73625 173.447 11.1111 175.403L88.8889 220.012C92.2671 221.969 96.0992 223 100 223C103.901 223 107.733 221.969 111.111 220.012L188.889 175.403C192.264 173.447 195.067 170.635 197.017 167.248C198.967 163.862 199.996 160.021 200 156.109Z" fill="black"/>
</svg>
