<svg width="138" height="36" viewBox="0 0 138 36" fill="none" xmlns="http://www.w3.org/2000/svg">
<path d="M8.44922 15.9766H6.22266V22H2.10938V4.9375H8.82422C10.8477 4.9375 12.4297 5.38672 13.5703 6.28516C14.7109 7.18359 15.2812 8.45312 15.2812 10.0938C15.2812 11.2812 15.0391 12.2656 14.5547 13.0469C14.0781 13.8281 13.3281 14.4609 12.3047 14.9453L15.8672 21.8242V22H11.4609L8.44922 15.9766ZM6.22266 12.8008H8.82422C9.60547 12.8008 10.1914 12.5977 10.582 12.1914C10.9805 11.7773 11.1797 11.2031 11.1797 10.4688C11.1797 9.73438 10.9805 9.16016 10.582 8.74609C10.1836 8.32422 9.59766 8.11328 8.82422 8.11328H6.22266V12.8008ZM23.7188 22.2344C21.7734 22.2344 20.1992 21.6562 18.9961 20.5C17.793 19.3359 17.1914 17.8242 17.1914 15.9648V15.6367C17.1914 14.3398 17.4297 13.1953 17.9062 12.2031C18.3906 11.2109 19.0938 10.4453 20.0156 9.90625C20.9375 9.35938 22.0312 9.08594 23.2969 9.08594C25.0781 9.08594 26.4844 9.64062 27.5156 10.75C28.5469 11.8516 29.0625 13.3906 29.0625 15.3672V16.9023H21.2109C21.3516 17.6133 21.6602 18.1719 22.1367 18.5781C22.6133 18.9844 23.2305 19.1875 23.9883 19.1875C25.2383 19.1875 26.2148 18.75 26.918 17.875L28.7227 20.0078C28.2305 20.6875 27.5312 21.2305 26.625 21.6367C25.7266 22.0352 24.7578 22.2344 23.7188 22.2344ZM23.2734 12.1328C22.1172 12.1328 21.4297 12.8984 21.2109 14.4297H25.1953V14.125C25.2109 13.4922 25.0508 13.0039 24.7148 12.6602C24.3789 12.3086 23.8984 12.1328 23.2734 12.1328ZM30.1641 15.5664C30.1641 13.5586 30.5977 11.9766 31.4648 10.8203C32.332 9.66406 33.543 9.08594 35.0977 9.08594C36.2305 9.08594 37.1836 9.53125 37.957 10.4219V4H41.918V22H38.3672L38.168 20.6406C37.3555 21.7031 36.3242 22.2344 35.0742 22.2344C33.5664 22.2344 32.3711 21.6562 31.4883 20.5C30.6055 19.3438 30.1641 17.6992 30.1641 15.5664ZM34.1133 15.8125C34.1133 18.0625 34.7695 19.1875 36.082 19.1875C36.957 19.1875 37.582 18.8203 37.957 18.0859V13.2578C37.5977 12.5078 36.9805 12.1328 36.1055 12.1328C34.8867 12.1328 34.2266 13.1172 34.125 15.0859L34.1133 15.8125Z" fill="#E84917"/>
<path d="M50.6836 15.9766H48.457V22H44.3438V4.9375H51.0586C53.082 4.9375 54.6641 5.38672 55.8047 6.28516C56.9453 7.18359 57.5156 8.45312 57.5156 10.0938C57.5156 11.2812 57.2734 12.2656 56.7891 13.0469C56.3125 13.8281 55.5625 14.4609 54.5391 14.9453L58.1016 21.8242V22H53.6953L50.6836 15.9766ZM48.457 12.8008H51.0586C51.8398 12.8008 52.4258 12.5977 52.8164 12.1914C53.2148 11.7773 53.4141 11.2031 53.4141 10.4688C53.4141 9.73438 53.2148 9.16016 52.8164 8.74609C52.418 8.32422 51.832 8.11328 51.0586 8.11328H48.457V12.8008ZM65.9531 22.2344C64.0078 22.2344 62.4336 21.6562 61.2305 20.5C60.0273 19.3359 59.4258 17.8242 59.4258 15.9648V15.6367C59.4258 14.3398 59.6641 13.1953 60.1406 12.2031C60.625 11.2109 61.3281 10.4453 62.25 9.90625C63.1719 9.35938 64.2656 9.08594 65.5312 9.08594C67.3125 9.08594 68.7188 9.64062 69.75 10.75C70.7812 11.8516 71.2969 13.3906 71.2969 15.3672V16.9023H63.4453C63.5859 17.6133 63.8945 18.1719 64.3711 18.5781C64.8477 18.9844 65.4648 19.1875 66.2227 19.1875C67.4727 19.1875 68.4492 18.75 69.1523 17.875L70.957 20.0078C70.4648 20.6875 69.7656 21.2305 68.8594 21.6367C67.9609 22.0352 66.9922 22.2344 65.9531 22.2344ZM65.5078 12.1328C64.3516 12.1328 63.6641 12.8984 63.4453 14.4297H67.4297V14.125C67.4453 13.4922 67.2852 13.0039 66.9492 12.6602C66.6133 12.3086 66.1328 12.1328 65.5078 12.1328ZM80.0391 22C79.8984 21.7422 79.7734 21.3633 79.6641 20.8633C78.9375 21.7773 77.9219 22.2344 76.6172 22.2344C75.4219 22.2344 74.4062 21.875 73.5703 21.1562C72.7344 20.4297 72.3164 19.5195 72.3164 18.4258C72.3164 17.0508 72.8242 16.0117 73.8398 15.3086C74.8555 14.6055 76.332 14.2539 78.2695 14.2539H79.4883V13.5859C79.4883 12.4219 78.9844 11.8398 77.9766 11.8398C77.0391 11.8398 76.5703 12.3008 76.5703 13.2227H72.6211C72.6211 11.9961 73.1406 11 74.1797 10.2344C75.2266 9.46875 76.5586 9.08594 78.1758 9.08594C79.793 9.08594 81.0703 9.48047 82.0078 10.2695C82.9453 11.0586 83.4258 12.1406 83.4492 13.5156V19.1289C83.4648 20.293 83.6445 21.1836 83.9883 21.8008V22H80.0391ZM77.5664 19.4219C78.0586 19.4219 78.4648 19.3164 78.7852 19.1055C79.1133 18.8945 79.3477 18.6562 79.4883 18.3906V16.3633H78.3398C76.9648 16.3633 76.2773 16.9805 76.2773 18.2148C76.2773 18.5742 76.3984 18.8672 76.6406 19.0938C76.8828 19.3125 77.1914 19.4219 77.5664 19.4219ZM89.8125 22H85.8516V4H89.8125V22ZM96.4219 22H92.4609V9.32031H96.4219V22ZM92.2266 6.05078C92.2266 5.48828 92.4297 5.02734 92.8359 4.66797C93.2422 4.30859 93.7695 4.12891 94.418 4.12891C95.0664 4.12891 95.5938 4.30859 96 4.66797C96.4062 5.02734 96.6094 5.48828 96.6094 6.05078C96.6094 6.61328 96.4062 7.07422 96 7.43359C95.5938 7.79297 95.0664 7.97266 94.418 7.97266C93.7695 7.97266 93.2422 7.79297 92.8359 7.43359C92.4297 7.07422 92.2266 6.61328 92.2266 6.05078ZM103.465 6.16797V9.32031H105.551V12.0625H103.465V17.8633C103.465 18.3398 103.551 18.6719 103.723 18.8594C103.895 19.0469 104.234 19.1406 104.742 19.1406C105.133 19.1406 105.461 19.1172 105.727 19.0703V21.8945C105.016 22.1211 104.273 22.2344 103.5 22.2344C102.141 22.2344 101.137 21.9141 100.488 21.2734C99.8398 20.6328 99.5156 19.6602 99.5156 18.3555V12.0625H97.8984V9.32031H99.5156V6.16797H103.465ZM111.281 22H107.32V9.32031H111.281V22ZM107.086 6.05078C107.086 5.48828 107.289 5.02734 107.695 4.66797C108.102 4.30859 108.629 4.12891 109.277 4.12891C109.926 4.12891 110.453 4.30859 110.859 4.66797C111.266 5.02734 111.469 5.48828 111.469 6.05078C111.469 6.61328 111.266 7.07422 110.859 7.43359C110.453 7.79297 109.926 7.97266 109.277 7.97266C108.629 7.97266 108.102 7.79297 107.695 7.43359C107.289 7.07422 107.086 6.61328 107.086 6.05078ZM119.859 22.2344C117.914 22.2344 116.34 21.6562 115.137 20.5C113.934 19.3359 113.332 17.8242 113.332 15.9648V15.6367C113.332 14.3398 113.57 13.1953 114.047 12.2031C114.531 11.2109 115.234 10.4453 116.156 9.90625C117.078 9.35938 118.172 9.08594 119.438 9.08594C121.219 9.08594 122.625 9.64062 123.656 10.75C124.688 11.8516 125.203 13.3906 125.203 15.3672V16.9023H117.352C117.492 17.6133 117.801 18.1719 118.277 18.5781C118.754 18.9844 119.371 19.1875 120.129 19.1875C121.379 19.1875 122.355 18.75 123.059 17.875L124.863 20.0078C124.371 20.6875 123.672 21.2305 122.766 21.6367C121.867 22.0352 120.898 22.2344 119.859 22.2344ZM119.414 12.1328C118.258 12.1328 117.57 12.8984 117.352 14.4297H121.336V14.125C121.352 13.4922 121.191 13.0039 120.855 12.6602C120.52 12.3086 120.039 12.1328 119.414 12.1328ZM133.441 18.4375C133.441 18.1016 133.266 17.832 132.914 17.6289C132.562 17.4258 131.895 17.2148 130.91 16.9961C129.926 16.7773 129.113 16.4922 128.473 16.1406C127.832 15.7812 127.344 15.3477 127.008 14.8398C126.672 14.332 126.504 13.75 126.504 13.0938C126.504 11.9297 126.984 10.9727 127.945 10.2227C128.906 9.46484 130.164 9.08594 131.719 9.08594C133.391 9.08594 134.734 9.46484 135.75 10.2227C136.766 10.9805 137.273 11.9766 137.273 13.2109H133.312C133.312 12.1953 132.777 11.6875 131.707 11.6875C131.293 11.6875 130.945 11.8047 130.664 12.0391C130.383 12.2656 130.242 12.5508 130.242 12.8945C130.242 13.2461 130.414 13.5312 130.758 13.75C131.102 13.9688 131.648 14.1484 132.398 14.2891C133.156 14.4297 133.82 14.5977 134.391 14.793C136.297 15.4492 137.25 16.625 137.25 18.3203C137.25 19.4766 136.734 20.418 135.703 21.1445C134.68 21.8711 133.352 22.2344 131.719 22.2344C130.633 22.2344 129.664 22.0391 128.812 21.6484C127.961 21.2578 127.297 20.7266 126.82 20.0547C126.344 19.3828 126.105 18.6758 126.105 17.9336H129.797C129.812 18.5195 130.008 18.9492 130.383 19.2227C130.758 19.4883 131.238 19.6211 131.824 19.6211C132.363 19.6211 132.766 19.5117 133.031 19.293C133.305 19.0742 133.441 18.7891 133.441 18.4375ZM105.054 30.8291V33H103.512V26.6016H106.065C106.554 26.6016 106.986 26.6924 107.361 26.874C107.739 27.0527 108.031 27.3091 108.236 27.6431C108.444 27.9741 108.548 28.3506 108.548 28.7725C108.548 29.3965 108.324 29.896 107.875 30.271C107.43 30.6431 106.818 30.8291 106.039 30.8291H105.054ZM105.054 29.6382H106.065C106.364 29.6382 106.591 29.5635 106.746 29.4141C106.904 29.2646 106.983 29.0537 106.983 28.7812C106.983 28.4824 106.903 28.2437 106.742 28.0649C106.581 27.8862 106.361 27.7954 106.083 27.7925H105.054V29.6382ZM114.397 27.7925H112.477V33H110.934V27.7925H109.049V26.6016H114.397V27.7925ZM117.464 29.3789L118.642 26.6016H120.308L118.247 30.7017V33H116.682V30.7017L114.625 26.6016H116.282L117.464 29.3789ZM124.557 31.8135H127.242V33H123.015V26.6016H124.557V31.8135ZM132.01 27.7925H130.09V33H128.547V27.7925H126.662V26.6016H132.01V27.7925ZM132.665 33V26.6016H134.726C135.292 26.6016 135.8 26.7305 136.251 26.9883C136.702 27.2432 137.054 27.605 137.306 28.0737C137.561 28.5396 137.689 29.0625 137.692 29.6426V29.937C137.692 30.5229 137.568 31.0488 137.319 31.5146C137.073 31.9775 136.724 32.3408 136.273 32.6045C135.825 32.8652 135.324 32.9971 134.77 33H132.665ZM134.208 27.7925V31.8135H134.744C135.186 31.8135 135.526 31.6567 135.763 31.3433C136 31.0269 136.119 30.5581 136.119 29.937V29.6602C136.119 29.042 136 28.5762 135.763 28.2627C135.526 27.9492 135.18 27.7925 134.726 27.7925H134.208Z" fill="white"/>
</svg>
