<svg width="256" height="256" viewBox="0 0 256 256" fill="none" xmlns="http://www.w3.org/2000/svg">
<rect width="256" height="256" fill="white"/>
<path d="M212.509 56.0941L144.491 16.6069C139.208 13.9744 132.604 12 126 12C118.736 12 112.132 13.3163 107.509 16.6069L39.4907 56.0941C28.9246 62.0172 21 76.4958 21 88.3419V166.658C21 178.504 28.9246 192.983 39.4907 198.906L107.509 238.393C112.792 241.026 119.396 243 126 243C133.264 243 139.868 241.684 144.491 238.393L212.509 198.906C223.075 192.983 231 178.504 231 166.658V88.3419C231 76.4958 223.075 62.6753 212.509 56.0941ZM219.774 167.316C219.774 175.214 213.83 185.744 206.566 189.692L138.547 229.179C135.245 231.154 130.623 232.47 125.34 232.47C120.717 232.47 115.434 231.154 112.132 229.179L44.1132 189.692C37.5094 185.744 30.9057 175.214 30.9057 167.316V89.0001C30.9057 81.1026 36.849 70.5728 44.1132 66.624L112.132 27.1368C115.434 25.1624 120.057 23.8462 125.34 23.8462C129.962 23.8462 135.245 25.1624 138.547 27.1368L206.566 66.624C213.17 70.5728 219.774 81.1026 219.774 89.0001V167.316Z" fill="#CC1B00"/>
<circle cx="211" cy="52" r="23" fill="white"/>
<path d="M171.777 91.7491H65.225C63.1031 91.7491 61.4359 90.0818 61.4359 87.9599V72.5C61.4359 70.378 63.1031 68.7108 65.225 68.7108H171.777C173.899 68.7108 175.566 70.378 175.566 72.5V87.9599C175.566 90.0818 173.899 91.7491 171.777 91.7491ZM69.0142 84.1707H167.988V76.2892H69.0142V84.1707Z" fill="#365666"/>
<path d="M185.115 184.205H65.225C63.1031 184.205 61.4359 182.538 61.4359 180.416V87.9599C61.4359 85.8379 63.1031 84.1707 65.225 84.1707H185.115C187.237 84.1707 188.904 85.8379 188.904 87.9599V180.416C188.904 182.538 187.237 184.205 185.115 184.205ZM69.0142 176.627H181.326V91.7491H69.0142V176.627Z" fill="#365666"/>
<path d="M185.115 91.7491H171.777C169.655 91.7491 167.988 90.0818 167.988 87.9599V72.5C167.988 70.378 169.655 68.7108 171.777 68.7108H185.115C187.237 68.7108 188.904 70.378 188.904 72.5V87.9599C188.904 90.0818 187.237 91.7491 185.115 91.7491ZM175.566 84.1707H181.326V76.2892H175.566V84.1707Z" fill="#365666"/>
<path d="M123.124 155.862H84.0194C81.8975 155.862 80.2303 154.195 80.2303 152.073V104.632C80.2303 102.51 81.8975 100.843 84.0194 100.843H123.124C125.246 100.843 126.913 102.51 126.913 104.632V152.073C126.913 154.195 125.246 155.862 123.124 155.862ZM87.8086 148.284H119.335V108.422H87.8086V148.284Z" fill="#365666"/>
<path d="M146.769 108.725H134.946C132.824 108.725 131.157 107.057 131.157 104.935C131.157 102.814 132.824 101.146 134.946 101.146H146.769C148.89 101.146 150.558 102.814 150.558 104.935C150.558 107.057 148.739 108.725 146.769 108.725Z" fill="#365666"/>
<path d="M168.291 120.395H134.946C132.824 120.395 131.157 118.728 131.157 116.606C131.157 114.484 132.824 112.817 134.946 112.817H168.291C170.413 112.817 172.08 114.484 172.08 116.606C172.08 118.728 170.413 120.395 168.291 120.395Z" fill="#365666"/>
<path d="M168.291 132.218H134.946C132.824 132.218 131.157 130.55 131.157 128.428C131.157 126.307 132.824 124.639 134.946 124.639H168.291C170.413 124.639 172.08 126.307 172.08 128.428C172.08 130.55 170.413 132.218 168.291 132.218Z" fill="#365666"/>
<path d="M168.291 143.888H134.946C132.824 143.888 131.157 142.221 131.157 140.099C131.157 137.977 132.824 136.31 134.946 136.31H168.291C170.413 136.31 172.08 137.977 172.08 140.099C172.08 142.221 170.413 143.888 168.291 143.888Z" fill="#365666"/>
<path d="M158.591 155.711H134.946C132.824 155.711 131.157 154.043 131.157 151.921C131.157 149.8 132.824 148.132 134.946 148.132H158.742C160.864 148.132 162.532 149.8 162.532 151.921C162.532 154.043 160.713 155.711 158.591 155.711Z" fill="#365666"/>
<path d="M194.058 35.2143C184.812 44.4599 184.812 59.7683 194.058 69.1655C203.303 78.5627 218.612 78.4111 228.009 69.1655C237.406 59.9198 237.254 44.6115 228.009 35.2143C218.763 25.8171 203.303 25.9687 194.058 35.2143ZM225.129 66.4372C217.248 74.3188 204.667 74.3188 196.937 66.4372C189.207 58.5557 189.056 45.9756 196.937 38.0941C204.819 30.2126 217.399 30.2126 225.129 38.0941C232.859 45.824 232.859 58.5557 225.129 66.4372Z" fill="#CC1B00"/>
<path d="M210 44H203C202.47 44 201.961 44.2107 201.586 44.5858C201.211 44.9609 201 45.4696 201 46V60C201 60.5304 201.211 61.0391 201.586 61.4142C201.961 61.7893 202.47 62 203 62H217C217.53 62 218.039 61.7893 218.414 61.4142C218.789 61.0391 219 60.5304 219 60V53" stroke="#365666" stroke-width="3" stroke-linecap="round" stroke-linejoin="round"/>
<path d="M217.5 42.5C217.898 42.1022 218.437 41.8787 219 41.8787C219.563 41.8787 220.102 42.1022 220.5 42.5C220.898 42.8978 221.121 43.4374 221.121 44C221.121 44.5626 220.898 45.1022 220.5 45.5L211 55L207 56L208 52L217.5 42.5Z" stroke="#365666" stroke-width="3" stroke-linecap="round" stroke-linejoin="round"/>
</svg>
